HIERARCHY
ROOT Hips
{
  OFFSET 0.0 0.0 0.0
  CHANNELS 6 Xposition Yposition Zposition Zrotation Yrotation Xrotation
  JOINT LHipJoint
  {
    OFFSET 0.0 0.0 0.0
    CHANNELS 3 Zrotation Yrotation Xrotation
    JOINT LeftUpLeg
    {
      OFFSET 1.363059998 -1.794630051 0.839290023
      CHANNELS 3 Zrotation Yrotation Xrotation
      JOINT LeftLeg
      {
        OFFSET 2.448110104 -6.726130009 0.0
        CHANNELS 3 Zrotation Yrotation Xrotation
        JOINT LeftFoot
        {
          OFFSET 2.562200069 -7.039589882 0.0
          CHANNELS 3 Zrotation Yrotation Xrotation
          JOINT LeftToeBase
          {
            OFFSET 0.157639995 -0.433109999 2.322550058
            CHANNELS 3 Zrotation Yrotation Xrotation
            End Site
            {
              OFFSET 0.0 -0.0 1.189659953
            }
          }
        }
      }
    }
  }
  JOINT RHipJoint
  {
    OFFSET 0.0 0.0 0.0
    CHANNELS 3 Zrotation Yrotation Xrotation
    JOINT RightUpLeg
    {
      OFFSET -1.305520058 -1.794630051 0.839290023
      CHANNELS 3 Zrotation Yrotation Xrotation
      JOINT RightLeg
      {
        OFFSET -2.54253006 -6.985549927 0.0
        CHANNELS 3 Zrotation Yrotation Xrotation
        JOINT RightFoot
        {
          OFFSET -2.568259954 -7.056230068 0.0
          CHANNELS 3 Zrotation Yrotation Xrotation
          JOINT RightToeBase
          {
            OFFSET -0.164729998 -0.452589989 2.363149881
            CHANNELS 3 Zrotation Yrotation Xrotation
            End Site
            {
              OFFSET -0.0 -0.0 1.21081996
            }
          }
        }
      }
    }
  }
  JOINT LowerBack
  {
    OFFSET 0.0 0.0 0.0
    CHANNELS 3 Zrotation Yrotation Xrotation
    JOINT Spine
    {
      OFFSET 0.028270001 2.035589933 -0.193379998
      CHANNELS 3 Zrotation Yrotation Xrotation
      JOINT Spine1
      {
        OFFSET 0.05672 2.04885006 -0.042750001
        CHANNELS 3 Zrotation Yrotation Xrotation
        JOINT Neck
        {
          OFFSET 0.0 0.0 0.0
          CHANNELS 3 Zrotation Yrotation Xrotation
          JOINT Neck1
          {
            OFFSET -0.054170001 1.74624002 0.172020003
            CHANNELS 3 Zrotation Yrotation Xrotation
            JOINT Head
            {
              OFFSET 0.10407 1.761360049 -0.123970002
              CHANNELS 3 Zrotation Yrotation Xrotation
              End Site
              {
                OFFSET 0.0372 1.770439982 -0.062410001
              }
            }
          }
        }
        JOINT LeftShoulder
        {
          OFFSET 0.0 0.0 0.0
          CHANNELS 3 Zrotation Yrotation Xrotation
          JOINT LeftArm
          {
            OFFSET 3.362410069 1.200889945 -0.311210006
            CHANNELS 3 Zrotation Yrotation Xrotation
            JOINT LeftForeArm
            {
              OFFSET 4.982999802 -0.0 -0.0
              CHANNELS 3 Zrotation Yrotation Xrotation
              JOINT LeftHand
              {
                OFFSET 3.483560085 -0.0 -0.0
                CHANNELS 3 Zrotation Yrotation Xrotation
                JOINT LeftFingerBase
                {
                  OFFSET 0.0 0.0 0.0
                  CHANNELS 3 Zrotation Yrotation Xrotation
                  JOINT LeftHandIndex1
                  {
                    OFFSET 0.715260029 -0.0 -0.0
                    CHANNELS 3 Zrotation Yrotation Xrotation
                    End Site
                    {
                      OFFSET 0.576659977 -0.0 -0.0
                    }
                  }
                }
                JOINT LThumb
                {
                  OFFSET 0.0 0.0 0.0
                  CHANNELS 3 Zrotation Yrotation Xrotation
                  End Site
                  {
                    OFFSET 0.585470021 -0.0 0.585470021
                  }
                }
              }
            }
          }
        }
        JOINT RightShoulder
        {
          OFFSET 0.0 0.0 0.0
          CHANNELS 3 Zrotation Yrotation Xrotation
          JOINT RightArm
          {
            OFFSET -3.136600018 1.374050021 -0.404650003
            CHANNELS 3 Zrotation Yrotation Xrotation
            JOINT RightForeArm
            {
              OFFSET -5.241899967 -0.0 -0.0
              CHANNELS 3 Zrotation Yrotation Xrotation
              JOINT RightHand
              {
                OFFSET -3.444169998 -0.0 -0.0
                CHANNELS 3 Zrotation Yrotation Xrotation
                JOINT RightFingerBase
                {
                  OFFSET 0.0 0.0 0.0
                  CHANNELS 3 Zrotation Yrotation Xrotation
                  JOINT RightHandIndex1
                  {
                    OFFSET -0.622529984 -0.0 -0.0
                    CHANNELS 3 Zrotation Yrotation Xrotation
                    End Site
                    {
                      OFFSET -0.501900017 -0.0 -0.0
                    }
                  }
                }
                JOINT RThumb
                {
                  OFFSET 0.0 0.0 0.0
                  CHANNELS 3 Zrotation Yrotation Xrotation
                  End Site
                  {
                    OFFSET -0.509559989 -0.0 0.509559989
                  }
                }
              }
            }
          }
        }
      }
    }
  }
}
MOTION
Frames: 5
Frame Time: 0.0083333
0.0 15.892900467 0.0 -3.879100084 -17.376296997 -11.725999832 0.0 -0.0 0.0 -6.710002422 -0.986901104 -16.761102676 13.691096306 19.017700195 71.258903503 2.087100267 -13.136498451 -26.196697235 0.762799978 -5.577400208 -15.563101768 0.0 -0.0 0.0 25.659095764 -0.72380054 -11.685699463 -12.971702576 -18.771896362 69.037696838 -2.988900423 -6.333600998 -35.321105957 -0.1382 2.396300316 -6.602100849 1.712900162 1.047000289 17.514604568 2.29570055 1.786099553 4.204500198 1.080199718 0.845399976 -5.323299885 -9.797299385 -13.340498924 9.855500221 13.926099777 -18.283500671 -5.540599823 6.053699493 -9.51819706 -1.002099752 0.0 -0.0 0.0 -32.147399902 0.510998845 -24.86349678 153.433395386 -37.762805939 -110.76750946 0.0 -0.0 24.710597992 63.843399048 -7.918599606 -15.669501305 -7.125 0.0 0.0 24.491195679 13.423897743 -20.107700348 0.0 -0.0 0.0 17.702495575 23.711500168 -31.665201187 -147.087905884 43.262298584 -106.638198853 0.0 -0.0 13.197501183 -46.00680542 -19.356397629 18.947402954 7.125 -0.0 0.0 -19.73890686 -55.699409485 5.33210659 
-0.001899719 15.956600189 0.039600372 -3.363800526 -17.846698761 -11.4708004 0.0 -0.0 0.0 -7.133099079 -0.287699759 -16.889598846 13.51499939 18.960298538 70.717697144 1.938800454 -13.801400185 -25.386100769 0.647000194 -5.14550066 -14.324199677 0.0 -0.0 0.0 24.845201492 -0.9751001 -11.514800072 -12.661002159 -18.656299591 68.069076538 -3.013299704 -5.667600632 -35.131904602 -0.168599993 2.645000696 -7.291999817 1.153099895 1.212499738 17.100301743 2.083400011 1.878800392 4.288299561 1.159600019 0.897899985 -5.024199963 -9.589701653 -13.473497391 9.807199478 14.135004044 -18.420003891 -5.627801895 6.081499577 -9.598900795 -1.00210011 0.0 -0.0 0.0 -38.501708984 1.190598726 -21.136497498 152.420013428 -38.726696014 -110.140220642 0.0 -0.0 29.11810112 64.212608337 -12.957796097 -24.896402359 -7.125 0.0 0.0 22.980098724 3.855297804 -23.386697769 0.0 -0.0 0.0 24.052295685 22.568099976 -25.407398224 -146.995407104 43.33360672 -106.574806213 0.0 -0.0 16.398199081 -46.138893127 -17.889404297 17.725996017 7.125 -0.0 0.0 -19.519504547 -53.880298615 4.390401363 
-0.005800247 16.024599075 0.074300289 -3.854599476 -18.450099945 -10.771398544 0.0 -0.0 0.0 -6.357200146 0.501399934 -17.201997757 13.331299782 18.898498535 70.151496887 1.789400339 -14.606201172 -24.602901459 0.550499797 -4.753100395 -13.205698967 0.0 -0.0 0.0 25.218694687 -1.123600602 -11.450698853 -12.274898529 -18.504400253 66.857406616 -3.025100231 -5.105800629 -34.936698914 -0.155100003 2.537499905 -6.993501186 1.511399865 1.318199992 16.595096588 2.144599915 2.065299749 4.381498814 0.993599892 0.988600016 -4.64659977 -9.41009903 -13.726400375 8.991297722 14.169501305 -18.732299805 -5.071500301 5.957500458 -9.729799271 -0.684800029 0.0 -0.0 0.0 -44.647895813 1.529301286 -17.588298798 150.586700439 -40.385192871 -108.972503662 0.0 -0.0 32.346294403 63.481391907 -15.756500244 -28.55509758 -7.125 0.0 0.0 21.764802933 -0.393700331 -23.688402176 0.0 -0.0 0.0 29.925401688 21.187402725 -19.618602753 -146.319717407 43.846488953 -106.108818054 0.0 -0.0 18.615299225 -46.086204529 -16.392299652 16.336999893 7.125 -0.0 0.0 -19.073701859 -51.950710297 3.36550045 
-0.011400223 16.091400146 0.103000164 -4.488299847 -18.870996475 -9.856300354 0.0 -0.0 0.0 -5.507600307 1.062299967 -17.685102463 13.152298927 18.836503983 69.597831726 1.684200287 -14.951198578 -24.014003754 0.524499893 -4.641199589 -12.887997627 0.0 -0.0 0.0 25.723899841 -1.368799806 -11.606600761 -11.849497795 -18.326301575 65.510910034 -3.006200314 -4.525100231 -34.577308655 -0.12560001 2.284400225 -6.292301178 1.998499274 1.36920011 15.966197014 2.193800211 2.191100359 4.478700638 0.760699928 1.051499963 -4.190899372 -9.014598846 -14.050601006 8.048701286 14.177901268 -19.102798462 -4.685599804 5.792601109 -9.887901306 -0.414500028 0.0 -0.0 0.0 -50.244403839 1.708099127 -14.497198105 147.934906006 -42.598991394 -107.215103149 0.0 -0.0 33.573898315 60.849990845 -16.483200073 -26.963596344 -7.125 0.0 0.0 20.160297394 0.310200125 -21.425199509 0.0 -0.0 0.0 35.395202637 19.645805359 -14.270103455 -145.079818726 44.75510025 -105.24281311 0.0 -0.0 19.259002686 -44.896694183 -14.876901627 14.349600792 7.125 -0.0 0.0 -17.403902054 -49.720302582 2.081498623 
-0.022199631 16.155799866 0.141900063 -5.480400562 -19.263504028 -8.962900162 0.0 -0.0 0.0 -4.288899899 1.595499396 -17.974399567 12.964003563 18.769100189 69.013587952 1.614299655 -15.254500389 -23.638402939 0.532700181 -4.676701069 -12.988601685 0.0 -0.0 0.0 26.610197067 -1.738900542 -11.548399925 -11.399103165 -18.124908447 64.070800781 -3.028800011 -3.643699408 -34.325496674 -0.086899996 1.901599765 -5.233699799 2.771600246 1.399999738 15.420398712 2.401800394 2.338099957 4.532100677 0.530499876 1.125099897 -3.818300009 -8.881699562 -14.315500259 7.571498871 14.492098808 -19.416402817 -4.686600685 5.806499958 -10.042099953 -0.282599866 0.0 -0.0 0.0 -55.188495636 2.227200985 -11.948400497 144.901916504 -44.882080078 -105.117507935 0.0 -0.0 32.300300598 55.640003204 -16.214797974 -22.216499329 -7.125 0.0 0.0 17.375898361 3.752100468 -17.017698288 0.0 -0.0 0.0 40.312198639 17.753398895 -9.140403748 -143.214202881 46.046001434 -103.914306641 0.0 -0.0 18.171302795 -43.017501831 -14.292098999 12.971599579 7.125 -0.0 0.0 -15.307801247 -48.574607849 1.379499674 
